# xmcd
#
# Track frame offsets: 
#        150
#        14365
#        28183
#        48963
#        60485
#        74727
#        86254
#        101600
#        117445
#        135023
#        150119
#
# Disc length: 2215 seconds
#
# Revision: 2
# Processed by: cddbd v1.5.2PL0 Copyright (c) Steve Scherf et al.
# Submitted via: ExactAudioCopyFreeDBPlugin 1.0
#
DISCID=8008a50b
DTITLE=Albert Lee - Real Wild Child
DYEAR=2005
DGENRE=Country
TTITLE0=Sweet Little Lisa
TTITLE1=Pink Bedroom
TTITLE2=On The Boulevard
TTITLE3=The Best I Can
TTITLE4=Rock'n'Roll Man
TTITLE5=Real Wild Child
TTITLE6=Radio Girl
TTITLE7=Your Boys
TTITLE8=So Sad (To Watch Good Love Go Bad)
TTITLE9=One Way Rider
TTITLE10=Ain´t Got No Reason
EXTD=\n\n\nYEAR: 2000  ID3G:   2
EXTT0=
EXTT1=
EXTT2=
EXTT3=
EXTT4=
EXTT5=
EXTT6=
EXTT7=
EXTT8=
EXTT9=
EXTT10=
PLAYORDER=
